<svg width="192" height="192" viewBox="0 0 192 192" fill="none" xmlns="http://www.w3.org/2000/svg">
  <rect width="192" height="192" rx="42" fill="#FFD66B"/>
  <path d="M53 45h74c12 0 22 10 22 22v83H69c-12 0-22-10-22-22V51c0-3 3-6 6-6Z" fill="#FFF8DF" stroke="#2F6EA3" stroke-width="7"/>
  <path d="M70 71h51M70 91h38M70 111h48" stroke="#89CFF0" stroke-width="7" stroke-linecap="round"/>
  <path d="M129 47v94" stroke="#2F6EA3" stroke-width="7" stroke-linecap="round"/>
  <path d="M126 92c9-14 33-5 29 12-3 13-21 20-31 29-8-12-24-24-18-37 4-8 14-10 20-4Z" fill="#FF7A85" stroke="#2F6EA3" stroke-width="5" stroke-linejoin="round"/>
  <path d="M55 133l11 7 12-7-3 14 10 9-14 1-6 13-6-13-14-1 10-9-3-14Z" fill="#FFFFFF" stroke="#2F6EA3" stroke-width="5" stroke-linejoin="round"/>
</svg>
