<svg width="512" height="512" viewBox="0 0 512 512" fill="none" xmlns="http://www.w3.org/2000/svg">
  <rect width="512" height="512" rx="112" fill="#FFD66B"/>
  <path d="M141 120h198c32 0 58 26 58 58v222H184c-32 0-58-26-58-58V135c0-8 7-15 15-15Z" fill="#FFF8DF" stroke="#2F6EA3" stroke-width="18"/>
  <path d="M186 189h136M186 243h101M186 296h127" stroke="#89CFF0" stroke-width="18" stroke-linecap="round"/>
  <path d="M344 126v251" stroke="#2F6EA3" stroke-width="18" stroke-linecap="round"/>
  <path d="M336 245c24-37 88-13 78 31-9 35-56 54-84 78-22-33-65-65-48-99 11-22 37-27 54-10Z" fill="#FF7A85" stroke="#2F6EA3" stroke-width="14" stroke-linejoin="round"/>
  <path d="M146 353l30 19 32-19-9 38 28 24-38 3-16 35-16-35-38-3 28-24-9-38Z" fill="#FFFFFF" stroke="#2F6EA3" stroke-width="14" stroke-linejoin="round"/>
</svg>
